<svg xmlns="http://www.w3.org/2000/svg" viewBox="0 0 48 36" width="48" height="36" fill="none" stroke="#323232" stroke-width="1.5" stroke-linecap="round" stroke-linejoin="round" aria-hidden="true"><rect x="1" y="1" width="46" height="34" fill="#ffffff" stroke="#323232"/><circle cx="4" cy="4" r="0.5" fill="#323232" stroke="none"/><circle cx="8" cy="4" r="0.5" fill="#323232" stroke="none"/><circle cx="12" cy="4" r="0.5" fill="#323232" stroke="none"/><circle cx="16" cy="4" r="0.5" fill="#323232" stroke="none"/><circle cx="20" cy="4" r="0.5" fill="#323232" stroke="none"/><circle cx="24" cy="4" r="0.5" fill="#323232" stroke="none"/><circle cx="28" cy="4" r="0.5" fill="#323232" stroke="none"/><circle cx="32" cy="4" r="0.5" fill="#323232" stroke="none"/><circle cx="36" cy="4" r="0.5" fill="#323232" stroke="none"/><circle cx="40" cy="4" r="0.5" fill="#323232" stroke="none"/><circle cx="44" cy="4" r="0.5" fill="#323232" stroke="none"/><circle cx="4" cy="8" r="0.5" fill="#323232" stroke="none"/><circle cx="8" cy="8" r="0.5" fill="#323232" stroke="none"/><circle cx="12" cy="8" r="0.5" fill="#323232" stroke="none"/><circle cx="16" cy="8" r="0.5" fill="#323232" stroke="none"/><circle cx="20" cy="8" r="0.5" fill="#323232" stroke="none"/><circle cx="24" cy="8" r="0.5" fill="#323232" stroke="none"/><circle cx="28" cy="8" r="0.5" fill="#323232" stroke="none"/><circle cx="32" cy="8" r="0.5" fill="#323232" stroke="none"/><circle cx="36" cy="8" r="0.5" fill="#323232" stroke="none"/><circle cx="40" cy="8" r="0.5" fill="#323232" stroke="none"/><circle cx="44" cy="8" r="0.5" fill="#323232" stroke="none"/><circle cx="4" cy="12" r="0.5" fill="#323232" stroke="none"/><circle cx="8" cy="12" r="0.5" fill="#323232" stroke="none"/><circle cx="12" cy="12" r="0.5" fill="#323232" stroke="none"/><circle cx="16" cy="12" r="0.5" fill="#323232" stroke="none"/><circle cx="20" cy="12" r="0.5" fill="#323232" stroke="none"/><circle cx="24" cy="12" r="0.5" fill="#323232" stroke="none"/><circle cx="28" cy="12" r="0.5" fill="#323232" stroke="none"/><circle cx="32" cy="12" r="0.5" fill="#323232" stroke="none"/><circle cx="36" cy="12" r="0.5" fill="#323232" stroke="none"/><circle cx="40" cy="12" r="0.5" fill="#323232" stroke="none"/><circle cx="44" cy="12" r="0.5" fill="#323232" stroke="none"/><circle cx="4" cy="16" r="0.5" fill="#323232" stroke="none"/><circle cx="8" cy="16" r="0.5" fill="#323232" stroke="none"/><circle cx="12" cy="16" r="0.5" fill="#323232" stroke="none"/><circle cx="16" cy="16" r="0.5" fill="#323232" stroke="none"/><circle cx="20" cy="16" r="0.5" fill="#323232" stroke="none"/><circle cx="24" cy="16" r="0.5" fill="#323232" stroke="none"/><circle cx="28" cy="16" r="0.5" fill="#323232" stroke="none"/><circle cx="32" cy="16" r="0.5" fill="#323232" stroke="none"/><circle cx="36" cy="16" r="0.5" fill="#323232" stroke="none"/><circle cx="40" cy="16" r="0.5" fill="#323232" stroke="none"/><circle cx="44" cy="16" r="0.5" fill="#323232" stroke="none"/><circle cx="4" cy="20" r="0.5" fill="#323232" stroke="none"/><circle cx="8" cy="20" r="0.5" fill="#323232" stroke="none"/><circle cx="12" cy="20" r="0.5" fill="#323232" stroke="none"/><circle cx="16" cy="20" r="0.5" fill="#323232" stroke="none"/><circle cx="20" cy="20" r="0.5" fill="#323232" stroke="none"/><circle cx="24" cy="20" r="0.5" fill="#323232" stroke="none"/><circle cx="28" cy="20" r="0.5" fill="#323232" stroke="none"/><circle cx="32" cy="20" r="0.5" fill="#323232" stroke="none"/><circle cx="36" cy="20" r="0.5" fill="#323232" stroke="none"/><circle cx="40" cy="20" r="0.5" fill="#323232" stroke="none"/><circle cx="44" cy="20" r="0.5" fill="#323232" stroke="none"/><circle cx="4" cy="24" r="0.5" fill="#323232" stroke="none"/><circle cx="8" cy="24" r="0.5" fill="#323232" stroke="none"/><circle cx="12" cy="24" r="0.5" fill="#323232" stroke="none"/><circle cx="16" cy="24" r="0.5" fill="#323232" stroke="none"/><circle cx="20" cy="24" r="0.5" fill="#323232" stroke="none"/><circle cx="24" cy="24" r="0.5" fill="#323232" stroke="none"/><circle cx="28" cy="24" r="0.5" fill="#323232" stroke="none"/><circle cx="32" cy="24" r="0.5" fill="#323232" stroke="none"/><circle cx="36" cy="24" r="0.5" fill="#323232" stroke="none"/><circle cx="40" cy="24" r="0.5" fill="#323232" stroke="none"/><circle cx="44" cy="24" r="0.5" fill="#323232" stroke="none"/><circle cx="4" cy="28" r="0.5" fill="#323232" stroke="none"/><circle cx="8" cy="28" r="0.5" fill="#323232" stroke="none"/><circle cx="12" cy="28" r="0.5" fill="#323232" stroke="none"/><circle cx="16" cy="28" r="0.5" fill="#323232" stroke="none"/><circle cx="20" cy="28" r="0.5" fill="#323232" stroke="none"/><circle cx="24" cy="28" r="0.5" fill="#323232" stroke="none"/><circle cx="28" cy="28" r="0.5" fill="#323232" stroke="none"/><circle cx="32" cy="28" r="0.5" fill="#323232" stroke="none"/><circle cx="36" cy="28" r="0.5" fill="#323232" stroke="none"/><circle cx="40" cy="28" r="0.5" fill="#323232" stroke="none"/><circle cx="44" cy="28" r="0.5" fill="#323232" stroke="none"/><circle cx="4" cy="32" r="0.5" fill="#323232" stroke="none"/><circle cx="8" cy="32" r="0.5" fill="#323232" stroke="none"/><circle cx="12" cy="32" r="0.5" fill="#323232" stroke="none"/><circle cx="16" cy="32" r="0.5" fill="#323232" stroke="none"/><circle cx="20" cy="32" r="0.5" fill="#323232" stroke="none"/><circle cx="24" cy="32" r="0.5" fill="#323232" stroke="none"/><circle cx="28" cy="32" r="0.5" fill="#323232" stroke="none"/><circle cx="32" cy="32" r="0.5" fill="#323232" stroke="none"/><circle cx="36" cy="32" r="0.5" fill="#323232" stroke="none"/><circle cx="40" cy="32" r="0.5" fill="#323232" stroke="none"/><circle cx="44" cy="32" r="0.5" fill="#323232" stroke="none"/></svg>
